<?xml version="1.0" encoding="utf-8"?>
<!-- Generator: Adobe Illustrator 24.1.0, SVG Export Plug-In . SVG Version: 6.00 Build 0)  -->
<svg version="1.1" id="Capa_1" xmlns="http://www.w3.org/2000/svg" xmlns:xlink="http://www.w3.org/1999/xlink" x="0px" y="0px"
	 viewBox="0 0 512 512" style="enable-background:new 0 0 512 512;" xml:space="preserve">
<style type="text/css">
	.st0{fill:#0A0000;}
	.st1{fill:#2A2A2A;}
	.st2{fill:#FFFFFF;}
</style>
<g>
	<path class="st0" d="M398,510.9H113.9C51.6,510.9,1,460.5,1,398V114C1,51.6,51.6,1.1,113.9,1.1h284.2C460.4,1.1,511,51.6,511,114
		v284.2C510.9,460.5,460.4,510.9,398,510.9z"/>
	<path class="st1" d="M396.2,496H115.7c-55,0-99.7-44.6-99.7-99.7V115.7c0-55,44.6-99.7,99.7-99.7h280.6c55,0,99.7,44.6,99.7,99.7
		v280.6C495.9,451.3,451.2,496,396.2,496z"/>
	<g>
		<path class="st2" d="M109,217.2c-3.5,0-6.3-1.1-8.4-3.1c-2.3-2-3.2-4.9-3.2-8.1s1.1-5.7,3.2-7.6c2.3-2,5-2.8,8.4-2.8h4
			c3.5,0,6.3,0.8,8.4,2.8c2.3,2,3.2,4.6,3.2,7.8c0,3.2-1.1,5.8-3.2,7.8c-2.3,2-5,3.1-8.4,3.1H109z M99.9,316.4v-23.9l3.8-58h15.2
			l3.8,58v23.9H99.9z"/>
		<path class="st2" d="M168.3,316.2v-120h20.6v48.2h32.2v-48.2h20.6v120h-20.5v-52.7H189v52.7H168.3z"/>
		<path class="st2" d="M260.8,316.2v-120h24.3l11.7,38.3c1.3,3.9,2.3,7.4,3.1,10.4c0.8,3.1,1.3,5.4,1.5,6.9c0.3-1.5,0.7-3.8,1.5-6.9
			c0.8-3.2,1.8-6.7,2.8-10.4l11.1-38.3H341v120h-19.3v-37.4c0-5.4,0.3-11.5,0.5-18.1c0.5-6.6,0.7-12.9,1.1-19.3
			c0.5-6.6,0.8-12.7,1.5-18.5c0.7-5.8,1.1-10.9,1.5-15.2l-16.1,56.7h-18.5l-16.5-56.7c0.7,4,1.1,9.2,1.8,14.7
			c0.7,5.5,1.1,11.7,1.5,18.1c0.5,6.6,0.8,12.8,1.3,19.6c0.5,6.6,0.5,12.8,0.5,18.7v37.4L260.8,316.2L260.8,316.2z"/>
		<path class="st2" d="M398.1,316.4c-3.5,0-6.1-1.1-8.4-3.1c-2.3-2-3.1-4.6-3.1-7.8c0-3.2,1.1-5.8,3.1-7.8c2.3-2,4.9-3.1,8.4-3.1h5
			c3.5,0,6.3,1.1,8.4,3.1s3.1,4.6,3.1,7.8c0,3.2-1.1,5.8-3.1,7.8c-2.3,2-4.9,3.1-8.4,3.1H398.1z M392.8,277.4l-3.8-59.1v-22.5h22.4
			v22.5l-3.8,59.1H392.8z"/>
	</g>
</g>
</svg>
