<svg width="510" height="159" viewBox="0 0 510 159" fill="none" xmlns="http://www.w3.org/2000/svg">
<g clip-path="url(#clip0_274_24)">
<rect width="510" height="159" rx="32" fill="white"/>
<rect width="510" height="159" rx="32" fill="#D9D9D9"/>
<path d="M173.578 69.3281C173.578 63.6406 176.75 60.7969 183.094 60.7969C189.453 60.7969 192.633 63.6406 192.633 69.3281V74.7891H186V69.3281C186 67.5 185.039 66.5859 183.117 66.5859H183.07C181.164 66.5859 180.211 67.5 180.211 69.3281V73.0078C180.211 74.8203 182.281 77.0391 186.422 79.6641C190.562 82.2734 192.633 85.4062 192.633 89.0625V94.1953C192.633 99.8984 189.461 102.75 183.117 102.75C176.758 102.734 173.578 99.8828 173.578 94.1953V88.7344H180.211V94.1953C180.211 96.0234 181.18 96.9375 183.117 96.9375C185.039 96.9375 186 96.0234 186 94.1953V89.5547C186 87.5859 183.93 85.2891 179.789 82.6641C175.648 80.0547 173.578 76.8828 173.578 73.1484V69.3281ZM216.867 94.1953C216.867 99.8828 213.688 102.734 207.328 102.75C200.984 102.75 197.812 99.8984 197.812 94.1953V69.3281C197.812 63.6406 200.984 60.7969 207.328 60.7969C213.688 60.7969 216.867 63.6406 216.867 69.3281V94.1953ZM210.234 69.3281C210.234 67.5 209.273 66.5859 207.352 66.5859H207.305C205.398 66.5859 204.445 67.5 204.445 69.3281V94.1953C204.445 96.0234 205.406 96.9375 207.328 96.9375C209.266 96.9375 210.234 96.0234 210.234 94.1953V69.3281ZM227.438 61.3594L231.961 77.2031L236.484 61.3594H243.516L235.477 84.3984L235.289 84.9141V102H228.656V84.9141L228.445 84.3984L220.406 61.3594H227.438ZM261.938 89.2031L269.648 61.3594H276.281V102H269.93V79.1953L264.258 102H259.758L253.922 79.1953V102H247.5V61.3594H254.133L261.938 89.2031ZM300.867 87.5859L303.023 102H296.32L295.031 93.375H288.258L286.945 102H280.266L282.422 87.6328L287.109 61.3594H296.203L300.867 87.5859ZM294.164 87.5859L291.633 70.6641L289.102 87.5859H294.164ZM307.031 61.3594H316.688C322.578 61.3594 325.523 64.2109 325.523 69.9141V76.0078C325.523 79.5859 323.781 81.9453 320.297 83.0859L327.75 102H320.484L314.508 84.1172L313.664 84.2344V102H307.031V61.3594ZM313.664 67.125V78.7734H315.188C316.109 78.7734 316.742 78.7188 317.086 78.6094C318.289 78.1875 318.891 77.3203 318.891 76.0078V69.9141C318.891 68.0547 317.93 67.125 316.008 67.125H313.664ZM349.523 94.1953C349.523 99.8828 346.344 102.734 339.984 102.75C333.641 102.75 330.469 99.8984 330.469 94.1953V69.3281C330.469 63.6406 333.641 60.7969 339.984 60.7969C346.344 60.7969 349.523 63.6406 349.523 69.3281V74.7891H342.891V69.3281C342.891 67.5 341.93 66.5859 340.008 66.5859H339.961C338.055 66.5859 337.102 67.5 337.102 69.3281V94.1953C337.102 96.0234 338.062 96.9375 339.984 96.9375C341.922 96.9375 342.891 96.0234 342.891 94.1953V88.7344H349.523V94.1953ZM373.758 94.1953C373.758 99.8828 370.578 102.734 364.219 102.75C357.875 102.75 354.703 99.8984 354.703 94.1953V61.4297H361.336V94.1953C361.336 96.0234 362.297 96.9375 364.219 96.9375C366.156 96.9375 367.125 96.0234 367.125 94.1953V61.4297H373.758V94.1953ZM379.172 69.3281C379.172 63.6406 382.344 60.7969 388.688 60.7969C395.047 60.7969 398.227 63.6406 398.227 69.3281V74.7891H391.594V69.3281C391.594 67.5 390.633 66.5859 388.711 66.5859H388.664C386.758 66.5859 385.805 67.5 385.805 69.3281V73.0078C385.805 74.8203 387.875 77.0391 392.016 79.6641C396.156 82.2734 398.227 85.4062 398.227 89.0625V94.1953C398.227 99.8984 395.055 102.75 388.711 102.75C382.352 102.734 379.172 99.8828 379.172 94.1953V88.7344H385.805V94.1953C385.805 96.0234 386.773 96.9375 388.711 96.9375C390.633 96.9375 391.594 96.0234 391.594 94.1953V89.5547C391.594 87.5859 389.523 85.2891 385.383 82.6641C381.242 80.0547 379.172 76.8828 379.172 73.1484V69.3281ZM403.875 61.3594H414.094C419.984 61.3594 422.93 64.2109 422.93 69.9141V93.4688C422.93 99.1406 419.844 101.984 413.672 102H403.875V61.3594ZM410.508 67.125V96.2109H413.414C415.336 96.2109 416.297 95.2969 416.297 93.4688V69.9141C416.297 68.0547 415.336 67.125 413.414 67.125H410.508ZM428.578 61.3594H445.781V67.125H435.211V78.7734H444.305V84.5859H435.211V96.2109H445.781V102H428.578V61.3594ZM464.531 102H455.438L450.75 75.7266L448.594 61.3594H455.297L459.961 92.6719L464.648 61.3594H471.352L469.195 75.7734L464.531 102Z" fill="black"/>
<path d="M133.627 17C133.424 17 133.246 17 133.043 17.025H100.822H76.0156H42.9316C42.7539 17 42.5508 17 42.373 17C31.6582 17 23 25.5432 23 36.0598V67.3098V91.6902V122.94C23 133.457 31.6582 142 42.373 142H75.6094H100.416H133.652C144.342 142 153.025 133.482 153.025 122.94V91.6902V67.2848V36.0598C153 25.5432 144.342 17 133.627 17Z" fill="black"/>
<path d="M105.545 58.6415L88 75.9027L70.4551 58.6415L52.9355 41.4053L35.3906 58.6415L52.9355 75.9027L70.4551 93.1389L88 110.4L105.545 93.1389L123.064 75.9027L105.545 58.6415Z" fill="white"/>
<path d="M122.023 117.619V93.2139V80.7988L97.2168 105.654V117.619H122.023Z" fill="white"/>
<path d="M54.2812 117.619V93.2139V80.7988L79.0879 105.654V117.619H54.2812Z" fill="white"/>
</g>
<defs>
<clipPath id="clip0_274_24">
<rect width="510" height="159" rx="32" fill="white"/>
</clipPath>
</defs>
</svg>
